<?xml version="1.0" encoding="UTF-8" standalone="no"?>
<svg
   version="1.1"
   width="12"
   height="15"
   shape-rendering="crispEdges"
   id="svg136"
   sodipodi:docname="icone.svg"
   inkscape:export-filename="icon.svg"
   inkscape:export-xdpi="1024"
   inkscape:export-ydpi="1024"
   xmlns:inkscape="http://www.inkscape.org/namespaces/inkscape"
   xmlns:sodipodi="http://sodipodi.sourceforge.net/DTD/sodipodi-0.dtd"
   xmlns="http://www.w3.org/2000/svg"
   xmlns:svg="http://www.w3.org/2000/svg">
  <sodipodi:namedview
     id="namedview1"
     pagecolor="#ffffff"
     bordercolor="#000000"
     borderopacity="0.25"
     inkscape:showpageshadow="2"
     inkscape:pageopacity="0.0"
     inkscape:pagecheckerboard="0"
     inkscape:deskcolor="#d1d1d1">
    <inkscape:page
       x="0"
       y="0"
       width="12"
       height="15"
       id="page2"
       margin="0"
       bleed="0" />
  </sodipodi:namedview>
  <defs
     id="defs136" />
  <rect
     x="3"
     y="0"
     width="1"
     height="1"
     fill="#ffffff"
     id="rect1" />
  <rect
     x="4"
     y="0"
     width="1"
     height="1"
     fill="#aa0000"
     id="rect2" />
  <rect
     x="5"
     y="0"
     width="1"
     height="1"
     fill="#ffaa55"
     id="rect3" />
  <rect
     x="6"
     y="0"
     width="1"
     height="1"
     fill="#ffaa55"
     id="rect4" />
  <rect
     x="7"
     y="0"
     width="1"
     height="1"
     fill="#aa0000"
     id="rect5" />
  <rect
     x="8"
     y="0"
     width="1"
     height="1"
     fill="#ffffff"
     id="rect6" />
  <rect
     x="2"
     y="1"
     width="1"
     height="1"
     fill="#ffffff"
     id="rect7" />
  <rect
     x="3"
     y="1"
     width="1"
     height="1"
     fill="#aaffaa"
     id="rect8" />
  <rect
     x="4"
     y="1"
     width="1"
     height="1"
     fill="#ffffff"
     id="rect9" />
  <rect
     x="5"
     y="1"
     width="1"
     height="1"
     fill="#aa0000"
     id="rect10" />
  <rect
     x="6"
     y="1"
     width="1"
     height="1"
     fill="#aa0000"
     id="rect11" />
  <rect
     x="7"
     y="1"
     width="1"
     height="1"
     fill="#ffffff"
     id="rect12" />
  <rect
     x="8"
     y="1"
     width="1"
     height="1"
     fill="#aaffaa"
     id="rect13" />
  <rect
     x="9"
     y="1"
     width="1"
     height="1"
     fill="#ffffff"
     id="rect14" />
  <rect
     x="1"
     y="2"
     width="1"
     height="1"
     fill="#ffffff"
     id="rect15" />
  <rect
     x="2"
     y="2"
     width="1"
     height="1"
     fill="#ffffff"
     id="rect16" />
  <rect
     x="3"
     y="2"
     width="1"
     height="1"
     fill="#ffffff"
     id="rect17" />
  <rect
     x="4"
     y="2"
     width="1"
     height="1"
     fill="#aaffaa"
     id="rect18" />
  <rect
     x="5"
     y="2"
     width="1"
     height="1"
     fill="#ffffff"
     id="rect19" />
  <rect
     x="6"
     y="2"
     width="1"
     height="1"
     fill="#ffffff"
     id="rect20" />
  <rect
     x="7"
     y="2"
     width="1"
     height="1"
     fill="#aaffaa"
     id="rect21" />
  <rect
     x="8"
     y="2"
     width="1"
     height="1"
     fill="#ffffff"
     id="rect22" />
  <rect
     x="9"
     y="2"
     width="1"
     height="1"
     fill="#ffffff"
     id="rect23" />
  <rect
     x="10"
     y="2"
     width="1"
     height="1"
     fill="#ffffff"
     id="rect24" />
  <rect
     x="1"
     y="3"
     width="1"
     height="1"
     fill="#ffffff"
     id="rect25" />
  <rect
     x="2"
     y="3"
     width="1"
     height="1"
     fill="#555555"
     id="rect26" />
  <rect
     x="3"
     y="3"
     width="1"
     height="1"
     fill="#ffffff"
     id="rect27" />
  <rect
     x="4"
     y="3"
     width="1"
     height="1"
     fill="#aaffaa"
     id="rect28" />
  <rect
     x="5"
     y="3"
     width="1"
     height="1"
     fill="#aaffaa"
     id="rect29" />
  <rect
     x="6"
     y="3"
     width="1"
     height="1"
     fill="#aaffaa"
     id="rect30" />
  <rect
     x="7"
     y="3"
     width="1"
     height="1"
     fill="#aaffaa"
     id="rect31" />
  <rect
     x="8"
     y="3"
     width="1"
     height="1"
     fill="#ffffff"
     id="rect32" />
  <rect
     x="9"
     y="3"
     width="1"
     height="1"
     fill="#555555"
     id="rect33" />
  <rect
     x="10"
     y="3"
     width="1"
     height="1"
     fill="#ffffff"
     id="rect34" />
  <rect
     x="1"
     y="4"
     width="1"
     height="1"
     fill="#ffffff"
     id="rect35" />
  <rect
     x="2"
     y="4"
     width="1"
     height="1"
     fill="#555555"
     id="rect36" />
  <rect
     x="3"
     y="4"
     width="1"
     height="1"
     fill="#aaffaa"
     id="rect37" />
  <rect
     x="4"
     y="4"
     width="1"
     height="1"
     fill="#55aaaa"
     id="rect38" />
  <rect
     x="5"
     y="4"
     width="1"
     height="1"
     fill="#55aaaa"
     id="rect39" />
  <rect
     x="6"
     y="4"
     width="1"
     height="1"
     fill="#55ffff"
     id="rect40" />
  <rect
     x="7"
     y="4"
     width="1"
     height="1"
     fill="#55ffff"
     id="rect41" />
  <rect
     x="8"
     y="4"
     width="1"
     height="1"
     fill="#aaffaa"
     id="rect42" />
  <rect
     x="9"
     y="4"
     width="1"
     height="1"
     fill="#555555"
     id="rect43" />
  <rect
     x="10"
     y="4"
     width="1"
     height="1"
     fill="#ffffff"
     id="rect44" />
  <rect
     x="1"
     y="5"
     width="1"
     height="1"
     fill="#555555"
     id="rect45" />
  <rect
     x="2"
     y="5"
     width="1"
     height="1"
     fill="#ffffff"
     id="rect46" />
  <rect
     x="3"
     y="5"
     width="1"
     height="1"
     fill="#aaffaa"
     id="rect47" />
  <rect
     x="4"
     y="5"
     width="1"
     height="1"
     fill="#55aaaa"
     id="rect48" />
  <rect
     x="5"
     y="5"
     width="1"
     height="1"
     fill="#55aaaa"
     id="rect49" />
  <rect
     x="6"
     y="5"
     width="1"
     height="1"
     fill="#55ffff"
     id="rect50" />
  <rect
     x="7"
     y="5"
     width="1"
     height="1"
     fill="#55ffff"
     id="rect51" />
  <rect
     x="8"
     y="5"
     width="1"
     height="1"
     fill="#aaffaa"
     id="rect52" />
  <rect
     x="9"
     y="5"
     width="1"
     height="1"
     fill="#ffffff"
     id="rect53" />
  <rect
     x="10"
     y="5"
     width="1"
     height="1"
     fill="#555555"
     id="rect54" />
  <rect
     x="0"
     y="6"
     width="1"
     height="1"
     fill="#ffffff"
     id="rect55" />
  <rect
     x="1"
     y="6"
     width="1"
     height="1"
     fill="#ffffff"
     id="rect56" />
  <rect
     x="2"
     y="6"
     width="1"
     height="1"
     fill="#ffffff"
     id="rect57" />
  <rect
     x="3"
     y="6"
     width="1"
     height="1"
     fill="#aaffaa"
     id="rect58" />
  <rect
     x="4"
     y="6"
     width="1"
     height="1"
     fill="#55aaaa"
     id="rect59" />
  <rect
     x="5"
     y="6"
     width="1"
     height="1"
     fill="#55aaaa"
     id="rect60" />
  <rect
     x="6"
     y="6"
     width="1"
     height="1"
     fill="#55aaaa"
     id="rect61" />
  <rect
     x="7"
     y="6"
     width="1"
     height="1"
     fill="#55aaaa"
     id="rect62" />
  <rect
     x="8"
     y="6"
     width="1"
     height="1"
     fill="#aaffaa"
     id="rect63" />
  <rect
     x="9"
     y="6"
     width="1"
     height="1"
     fill="#ffffff"
     id="rect64" />
  <rect
     x="10"
     y="6"
     width="1"
     height="1"
     fill="#ffffff"
     id="rect65" />
  <rect
     x="11"
     y="6"
     width="1"
     height="1"
     fill="#ffffff"
     id="rect66" />
  <rect
     x="0"
     y="7"
     width="1"
     height="1"
     fill="#ffffff"
     id="rect67" />
  <rect
     x="1"
     y="7"
     width="1"
     height="1"
     fill="#ffffff"
     id="rect68" />
  <rect
     x="2"
     y="7"
     width="1"
     height="1"
     fill="#ffffff"
     id="rect69" />
  <rect
     x="3"
     y="7"
     width="1"
     height="1"
     fill="#ffffff"
     id="rect70" />
  <rect
     x="4"
     y="7"
     width="1"
     height="1"
     fill="#aaffaa"
     id="rect71" />
  <rect
     x="5"
     y="7"
     width="1"
     height="1"
     fill="#aaffaa"
     id="rect72" />
  <rect
     x="6"
     y="7"
     width="1"
     height="1"
     fill="#aaffaa"
     id="rect73" />
  <rect
     x="7"
     y="7"
     width="1"
     height="1"
     fill="#aaffaa"
     id="rect74" />
  <rect
     x="8"
     y="7"
     width="1"
     height="1"
     fill="#ffffff"
     id="rect75" />
  <rect
     x="9"
     y="7"
     width="1"
     height="1"
     fill="#ffffff"
     id="rect76" />
  <rect
     x="10"
     y="7"
     width="1"
     height="1"
     fill="#ffffff"
     id="rect77" />
  <rect
     x="11"
     y="7"
     width="1"
     height="1"
     fill="#ffffff"
     id="rect78" />
  <rect
     x="0"
     y="8"
     width="1"
     height="1"
     fill="#ffffff"
     id="rect79" />
  <rect
     x="1"
     y="8"
     width="1"
     height="1"
     fill="#ffffff"
     id="rect80" />
  <rect
     x="2"
     y="8"
     width="1"
     height="1"
     fill="#005555"
     id="rect81" />
  <rect
     x="3"
     y="8"
     width="1"
     height="1"
     fill="#005555"
     id="rect82" />
  <rect
     x="4"
     y="8"
     width="1"
     height="1"
     fill="#ffffff"
     id="rect83" />
  <rect
     x="5"
     y="8"
     width="1"
     height="1"
     fill="#aaffaa"
     id="rect84" />
  <rect
     x="6"
     y="8"
     width="1"
     height="1"
     fill="#aaffaa"
     id="rect85" />
  <rect
     x="7"
     y="8"
     width="1"
     height="1"
     fill="#ffffff"
     id="rect86" />
  <rect
     x="8"
     y="8"
     width="1"
     height="1"
     fill="#005555"
     id="rect87" />
  <rect
     x="9"
     y="8"
     width="1"
     height="1"
     fill="#005555"
     id="rect88" />
  <rect
     x="10"
     y="8"
     width="1"
     height="1"
     fill="#ffffff"
     id="rect89" />
  <rect
     x="11"
     y="8"
     width="1"
     height="1"
     fill="#ffffff"
     id="rect90" />
  <rect
     x="0"
     y="9"
     width="1"
     height="1"
     fill="#ffffff"
     id="rect91" />
  <rect
     x="1"
     y="9"
     width="1"
     height="1"
     fill="#ffffff"
     id="rect92" />
  <rect
     x="2"
     y="9"
     width="1"
     height="1"
     fill="#55aa55"
     id="rect93" />
  <rect
     x="3"
     y="9"
     width="1"
     height="1"
     fill="#55aa55"
     id="rect94" />
  <rect
     x="4"
     y="9"
     width="1"
     height="1"
     fill="#ffffff"
     id="rect95" />
  <rect
     x="5"
     y="9"
     width="1"
     height="1"
     fill="#aaffaa"
     id="rect96" />
  <rect
     x="6"
     y="9"
     width="1"
     height="1"
     fill="#aaffaa"
     id="rect97" />
  <rect
     x="7"
     y="9"
     width="1"
     height="1"
     fill="#ffffff"
     id="rect98" />
  <rect
     x="8"
     y="9"
     width="1"
     height="1"
     fill="#55aa55"
     id="rect99" />
  <rect
     x="9"
     y="9"
     width="1"
     height="1"
     fill="#55aa55"
     id="rect100" />
  <rect
     x="10"
     y="9"
     width="1"
     height="1"
     fill="#ffffff"
     id="rect101" />
  <rect
     x="11"
     y="9"
     width="1"
     height="1"
     fill="#ffffff"
     id="rect102" />
  <rect
     x="0"
     y="10"
     width="1"
     height="1"
     fill="#ffffff"
     id="rect103" />
  <rect
     x="1"
     y="10"
     width="1"
     height="1"
     fill="#ffffff"
     id="rect104" />
  <rect
     x="2"
     y="10"
     width="1"
     height="1"
     fill="#005555"
     id="rect105" />
  <rect
     x="3"
     y="10"
     width="1"
     height="1"
     fill="#005555"
     id="rect106" />
  <rect
     x="4"
     y="10"
     width="1"
     height="1"
     fill="#ffffff"
     id="rect107" />
  <rect
     x="5"
     y="10"
     width="1"
     height="1"
     fill="#aaffaa"
     id="rect108" />
  <rect
     x="6"
     y="10"
     width="1"
     height="1"
     fill="#aaffaa"
     id="rect109" />
  <rect
     x="7"
     y="10"
     width="1"
     height="1"
     fill="#ffffff"
     id="rect110" />
  <rect
     x="8"
     y="10"
     width="1"
     height="1"
     fill="#005555"
     id="rect111" />
  <rect
     x="9"
     y="10"
     width="1"
     height="1"
     fill="#005555"
     id="rect112" />
  <rect
     x="10"
     y="10"
     width="1"
     height="1"
     fill="#ffffff"
     id="rect113" />
  <rect
     x="11"
     y="10"
     width="1"
     height="1"
     fill="#ffffff"
     id="rect114" />
  <rect
     x="1"
     y="11"
     width="1"
     height="1"
     fill="#ffffff"
     id="rect115" />
  <rect
     x="2"
     y="11"
     width="1"
     height="1"
     fill="#aaffaa"
     id="rect116" />
  <rect
     x="3"
     y="11"
     width="1"
     height="1"
     fill="#aaffaa"
     id="rect117" />
  <rect
     x="4"
     y="11"
     width="1"
     height="1"
     fill="#ffffff"
     id="rect118" />
  <rect
     x="5"
     y="11"
     width="1"
     height="1"
     fill="#aaffaa"
     id="rect119" />
  <rect
     x="6"
     y="11"
     width="1"
     height="1"
     fill="#aaffaa"
     id="rect120" />
  <rect
     x="7"
     y="11"
     width="1"
     height="1"
     fill="#ffffff"
     id="rect121" />
  <rect
     x="8"
     y="11"
     width="1"
     height="1"
     fill="#aaffaa"
     id="rect122" />
  <rect
     x="9"
     y="11"
     width="1"
     height="1"
     fill="#aaffaa"
     id="rect123" />
  <rect
     x="10"
     y="11"
     width="1"
     height="1"
     fill="#ffffff"
     id="rect124" />
  <rect
     x="2"
     y="12"
     width="1"
     height="1"
     fill="#55aa55"
     id="rect125" />
  <rect
     x="3"
     y="12"
     width="1"
     height="1"
     fill="#55aa55"
     id="rect126" />
  <rect
     x="5"
     y="12"
     width="1"
     height="1"
     fill="#ffffff"
     id="rect127" />
  <rect
     x="6"
     y="12"
     width="1"
     height="1"
     fill="#ffffff"
     id="rect128" />
  <rect
     x="8"
     y="12"
     width="1"
     height="1"
     fill="#55aa55"
     id="rect129" />
  <rect
     x="9"
     y="12"
     width="1"
     height="1"
     fill="#55aa55"
     id="rect130" />
  <rect
     x="2"
     y="13"
     width="1"
     height="1"
     fill="#ff5500"
     id="rect131" />
  <rect
     x="3"
     y="13"
     width="1"
     height="1"
     fill="#ff5500"
     id="rect132" />
  <rect
     x="8"
     y="13"
     width="1"
     height="1"
     fill="#ff5500"
     id="rect133" />
  <rect
     x="9"
     y="13"
     width="1"
     height="1"
     fill="#ff5500"
     id="rect134" />
  <rect
     x="3"
     y="14"
     width="1"
     height="1"
     fill="#ff5500"
     id="rect135" />
  <rect
     x="8"
     y="14"
     width="1"
     height="1"
     fill="#ff5500"
     id="rect136" />
</svg>
